<?xml version="1.0" encoding="UTF-8"?>
<svg xmlns="http://www.w3.org/2000/svg" xmlns:xlink="http://www.w3.org/1999/xlink" width="20px" height="20px" viewBox="0 0 20 20" version="1.1">
<defs>
<clipPath id="clip1">
  <path d="M 0 0 L 19.738281 0 L 19.738281 19.738281 L 0 19.738281 Z M 0 0 "/>
</clipPath>
<clipPath id="clip2">
  <path d="M 9.800781 6.535156 L 19.738281 6.535156 L 19.738281 15.335938 L 9.800781 15.335938 Z M 9.800781 6.535156 "/>
</clipPath>
<clipPath id="clip3">
  <path d="M 0.167969 6.535156 L 10.167969 6.535156 L 10.167969 15.335938 L 0.167969 15.335938 Z M 0.167969 6.535156 "/>
</clipPath>
</defs>
<g id="surface1">
<g clip-path="url(#clip1)" clip-rule="nonzero">
<path style=" stroke:none;fill-rule:nonzero;fill:rgb(65.490196%,66.666667%,67.843137%);fill-opacity:1;" d="M 10 0 C 4.476562 0 0 4.476562 0 10 C 0 15.523438 4.476562 20 10 20 C 15.523438 20 20 15.523438 20 10 C 20 4.476562 15.523438 0 10 0 "/>
</g>
<g clip-path="url(#clip2)" clip-rule="nonzero">
<path style=" stroke:none;fill-rule:nonzero;fill:rgb(11.372549%,13.72549%,15.294118%);fill-opacity:1;" d="M 15.738281 6.75 C 15.550781 6.59375 15.292969 6.558594 15.078125 6.667969 C 14.859375 6.769531 14.71875 6.992188 14.71875 7.238281 L 14.71875 8.574219 C 9.796875 10.410156 9.832031 14.636719 9.832031 14.679688 C 9.839844 14.945312 10.007812 15.179688 10.257812 15.265625 C 10.324219 15.289062 10.390625 15.296875 10.457031 15.296875 C 10.640625 15.296875 10.824219 15.214844 10.945312 15.0625 C 10.960938 15.039062 12.660156 12.921875 14.71875 12.539062 L 14.71875 13.65625 C 14.71875 13.902344 14.859375 14.125 15.078125 14.230469 C 15.292969 14.332031 15.550781 14.300781 15.738281 14.144531 L 19.574219 10.933594 C 19.714844 10.816406 19.800781 10.636719 19.800781 10.449219 C 19.800781 10.257812 19.714844 10.078125 19.574219 9.957031 Z M 15.964844 12.316406 L 15.964844 11.847656 C 15.964844 11.496094 15.683594 11.210938 15.339844 11.210938 C 13.886719 11.210938 12.574219 11.933594 11.613281 12.679688 C 12.164062 11.609375 13.273438 10.363281 15.53125 9.628906 C 15.789062 9.546875 15.964844 9.300781 15.964844 9.027344 L 15.964844 8.578125 L 18.199219 10.449219 Z M 15.964844 12.316406 "/>
</g>
<g clip-path="url(#clip3)" clip-rule="nonzero">
<path style=" stroke:none;fill-rule:nonzero;fill:rgb(11.372549%,13.72549%,15.294118%);fill-opacity:1;" d="M 0.394531 10.933594 L 4.234375 14.144531 C 4.417969 14.300781 4.675781 14.335938 4.894531 14.230469 C 5.113281 14.125 5.253906 13.902344 5.253906 13.65625 L 5.253906 12.539062 C 7.3125 12.921875 9.007812 15.039062 9.027344 15.058594 C 9.148438 15.214844 9.328125 15.296875 9.515625 15.296875 C 9.578125 15.296875 9.648438 15.289062 9.710938 15.265625 C 9.960938 15.179688 10.132812 14.945312 10.136719 14.679688 C 10.136719 14.636719 10.171875 10.410156 5.253906 8.574219 L 5.253906 7.238281 C 5.253906 6.992188 5.113281 6.769531 4.894531 6.667969 C 4.675781 6.558594 4.417969 6.59375 4.234375 6.75 L 0.394531 9.957031 C 0.253906 10.078125 0.167969 10.257812 0.167969 10.449219 C 0.167969 10.636719 0.253906 10.816406 0.394531 10.933594 Z M 4.007812 8.578125 L 4.007812 9.027344 C 4.007812 9.300781 4.179688 9.546875 4.441406 9.628906 C 6.695312 10.363281 7.808594 11.609375 8.359375 12.679688 C 7.394531 11.933594 6.085938 11.210938 4.628906 11.210938 C 4.285156 11.210938 4.007812 11.496094 4.007812 11.847656 L 4.007812 12.316406 L 1.773438 10.449219 Z M 4.007812 8.578125 "/>
</g>
</g>
</svg>
